<svg width="29" height="30" viewBox="0 0 29 30" fill="none" xmlns="http://www.w3.org/2000/svg">
<path fill-rule="evenodd" clip-rule="evenodd" d="M14.5 0.206299C6.49205 0.206299 0 6.69834 0 14.7063C0 22.7143 6.49205 29.2063 14.5 29.2063C22.508 29.2063 29 22.7143 29 14.7063C29 6.69834 22.508 0.206299 14.5 0.206299ZM20.7851 12.2545C20.9008 12.1222 20.9889 11.9681 21.0442 11.8012C21.0995 11.6344 21.1209 11.4582 21.1071 11.283C21.0933 11.1077 21.0446 10.937 20.9638 10.7809C20.8831 10.6248 20.7719 10.4864 20.6369 10.3739C20.5018 10.2614 20.3457 10.177 20.1775 10.1257C20.0094 10.0744 19.8327 10.0573 19.6579 10.0753C19.483 10.0933 19.3136 10.1461 19.1594 10.2306C19.0053 10.3151 18.8696 10.4295 18.7604 10.5672L13.0922 17.3677L10.1592 14.4334C9.91062 14.1933 9.57764 14.0605 9.23202 14.0635C8.88639 14.0665 8.55578 14.2051 8.31138 14.4495C8.06697 14.6939 7.92834 15.0245 7.92534 15.3701C7.92234 15.7158 8.0552 16.0487 8.29532 16.2973L12.2499 20.2519C12.3794 20.3813 12.5345 20.4824 12.7052 20.5486C12.8759 20.6148 13.0586 20.6446 13.2415 20.6363C13.4244 20.628 13.6036 20.5817 13.7676 20.5003C13.9317 20.4189 14.0769 20.3042 14.1942 20.1636L20.7851 12.2545Z" fill="#3B1188"/>
</svg>
