<svg width="29" height="30" viewBox="0 0 29 30" fill="none" xmlns="http://www.w3.org/2000/svg">
<g filter="url(#filter0_d_118_2810)">
<circle cx="14.5" cy="13.5" r="11.5" fill="white"/>
</g>
<path d="M16.7558 9.54093V10.4583C16.7558 10.5104 16.7787 10.5602 16.8189 10.5953L19.7106 13.0744L11.6757 13.0805C11.6252 13.0805 11.584 13.1213 11.584 13.1711V13.8506C11.584 13.9005 11.6252 13.9413 11.6757 13.9413L19.7106 13.9351L16.8189 16.4142C16.7787 16.4481 16.7558 16.498 16.7558 16.5512V17.4685C16.7558 17.5455 16.8487 17.5874 16.9071 17.5365L21.2912 13.7777C21.3309 13.7437 21.3627 13.7017 21.3845 13.6545C21.4063 13.6073 21.4176 13.556 21.4176 13.5042C21.4176 13.4523 21.4063 13.401 21.3845 13.3538C21.3627 13.3066 21.3309 13.2646 21.2912 13.2307L16.9071 9.47298C16.8475 9.42201 16.7558 9.46392 16.7558 9.54093Z" fill="#061A2D"/>
<defs>
<filter id="filter0_d_118_2810" x="0.294118" y="0.647059" width="28.4118" height="28.4118" filterUnits="userSpaceOnUse" color-interpolation-filters="sRGB">
<feFlood flood-opacity="0" result="BackgroundImageFix"/>
<feColorMatrix in="SourceAlpha" type="matrix" values="0 0 0 0 0 0 0 0 0 0 0 0 0 0 0 0 0 0 127 0" result="hardAlpha"/>
<feOffset dy="1.35294"/>
<feGaussianBlur stdDeviation="1.35294"/>
<feComposite in2="hardAlpha" operator="out"/>
<feColorMatrix type="matrix" values="0 0 0 0 0 0 0 0 0 0 0 0 0 0 0 0 0 0 0.25 0"/>
<feBlend mode="normal" in2="BackgroundImageFix" result="effect1_dropShadow_118_2810"/>
<feBlend mode="normal" in="SourceGraphic" in2="effect1_dropShadow_118_2810" result="shape"/>
</filter>
</defs>
</svg>
